<?xml version="1.0" encoding="UTF-8"?><svg id="Ebene_2" xmlns="http://www.w3.org/2000/svg" viewBox="0 0 200 109"><defs><style>.cls-1{fill-rule:evenodd;}.cls-1,.cls-2{fill:#fff;}.cls-3{fill:#3c7393;}</style></defs><g id="Ebene_1-2"><g id="Gruppe_87"><rect id="Rechteck_41" class="cls-3" width="200" height="109"/><g id="Gruppe_84"><g id="Gruppe_86"><g id="Gruppe_85"><g id="Gruppe_84-2"><path id="Pfad_317" class="cls-2" d="M177.25,36.72v.29c1.85-.03,3.32-1.55,3.3-3.39-.03-1.85-1.55-3.32-3.39-3.3-.86.01-1.68.35-2.29.95-.65.63-1.01,1.49-1,2.39,0,.9.36,1.76,1,2.39.64.61,1.5.95,2.39.93v-.57c-.74.01-1.46-.27-1.98-.79-.55-.51-.85-1.23-.84-1.98,0-.75.29-1.47.84-1.98,1.11-1.02,2.83-1.02,3.94,0,.53.52.83,1.24.84,1.98,0,.75-.3,1.46-.84,1.98-.53.51-1.23.79-1.96.79v.31Z"/><path id="Pfad_318" class="cls-1" d="M177.73,33.87c.51,0,.93-.42.93-.93,0,0,0-.02,0-.02,0-.69-.43-1-1.27-1h-1.34v3.54h.55v-1.53h.62l.93,1.53h.6l-1.03-1.58ZM176.61,33.44v-1.07h.72c.38,0,.76,0,.76.5s-.41.57-.86.57h-.62Z"/><path id="Pfad_319" class="cls-2" d="M72.86,60.54v-24.54h10.63v17.47c-.31,7.36-7.86,7.17-7.86,7.17h-2.77"/><path id="Pfad_320" class="cls-2" d="M70.66,60.54v-24.54h-10.66v17.47c.36,7.36,7.91,7.17,7.91,7.17h2.75"/><path id="Pfad_321" class="cls-2" d="M85.81,35.91h10.63v24.64h-10.63v-24.64"/><path id="Pfad_322" class="cls-2" d="M161.98,41.19c0-2.8,2.27-5.07,5.07-5.07,2.8,0,5.07,2.27,5.07,5.07,0,2.8-2.27,5.07-5.07,5.07-1.34,0-2.62-.53-3.57-1.48-.95-.95-1.49-2.24-1.49-3.59"/><path id="Pfad_323" class="cls-2" d="M150.51,35.91h10.56v24.64h-10.56v-24.64"/><path id="Pfad_324" class="cls-2" d="M112.05,60.54v-21.65h-3.78l14.1-12.66-.02,10.04h4.28v2.63h-4.28v21.65h-10.29"/><path id="Pfad_325" class="cls-2" d="M98.71,36v24.54h10.85v-17.37c-.36-7.36-7.96-7.17-7.96-7.17h-2.89"/><path id="Pfad_326" class="cls-2" d="M136.18,60.68c-6.91-.22-12.34-6-12.11-12.92.21-6.5,5.36-11.76,11.85-12.1v22.13c4.86.2,9.58-1.66,13-5.11v3.01c-3.27,3.51-7.95,5.35-12.74,4.99"/><path id="Pfad_327" class="cls-2" d="M137.66,35.67v12.69h11.33c.26-6.21-2.77-12.5-11.33-12.69"/><path id="Pfad_328" class="cls-2" d="M41.36,40.23h2.99v-14.03h13.31l-.02,34.36h-13.29v-16.92h-2.96v16.92h-13.31V26.2h13.31l-.02,14.03"/><path id="Pfad_329" class="cls-2" d="M37.21,79.2h-1.62l-3.13-5.35h-2.94v5.35h-1.43v-12.52h4.47c2.68,0,4.28,1.29,4.28,3.46s-1.55,3.68-4.21,3.68h0c1.03.07,1.94.68,2.39,1.6l2.2,3.78ZM32.64,72.73c1.31.17,2.51-.75,2.68-2.06.01-.11.02-.22.02-.33,0-1.48-1-2.39-2.7-2.39h-3.13v4.78h3.13Z"/><path id="Pfad_330" class="cls-2" d="M46.12,75.23h-6.4c0,1.91,1,3.04,2.53,3.04,1.18.02,2.2-.84,2.39-2.01h1.39c-.24,1.91-1.95,3.29-3.87,3.11-2.39,0-3.9-1.6-3.9-4.35s1.46-4.35,3.9-4.35,3.87,1.6,3.87,4.35l.09.21ZM39.74,74.52h5c-.14-1.74-1.05-2.75-2.39-2.75-1.48.04-2.65,1.27-2.61,2.75Z"/><path id="Pfad_331" class="cls-2" d="M55.8,70.84v8.55c.14,1.99-1.35,3.72-3.34,3.86-.22.02-.44.01-.65-.01-1.86.26-3.57-1.04-3.82-2.9,0-.07-.02-.14-.02-.21h1.31c.07,1.24,1.13,2.19,2.37,2.12.05,0,.11,0,.16-.02,1.31.12,2.48-.84,2.6-2.15.01-.16.01-.32,0-.47v-3.08h0c.02,1.53-1.2,2.79-2.73,2.81-.11,0-.22,0-.33-.01-2.22,0-3.56-1.62-3.56-4.32s1.34-4.32,3.56-4.32c1.51-.15,2.86.95,3.01,2.46.02.18.02.37,0,.55h0v-2.72l1.44-.12ZM54.51,75c0-1.96-.98-3.2-2.68-3.2s-2.68,1.17-2.68,3.2.98,3.18,2.68,3.18,2.68-1.22,2.68-3.18Z"/><path id="Pfad_332" class="cls-2" d="M65.69,73.99v5.21h-1.38v-5.19c.14-1.09-.64-2.08-1.72-2.21-.13-.02-.27-.02-.4,0-1.51,0-2.39,1.05-2.39,2.82v4.59h-1.27v-8.36h1.39v2.84h0c-.19-1.48.86-2.83,2.34-3.02.17-.02.34-.03.5-.02,1.61-.03,2.94,1.25,2.97,2.86,0,.16,0,.33-.03.49h0Z"/><path id="Pfad_333" class="cls-2" d="M75.48,75.23h-6.38c0,1.91,1,3.04,2.39,3.04,1.23.08,2.31-.79,2.51-2.01h1.36c-.21,1.93-1.94,3.32-3.87,3.11-2.39,0-3.87-1.6-3.87-4.35s1.46-4.35,3.87-4.35,3.87,1.6,3.87,4.35l.12.21ZM69.13,74.52h4.97c0-1.74-1.03-2.75-2.39-2.75-1.46.03-2.61,1.24-2.58,2.69,0,.02,0,.04,0,.06h0Z"/><path id="Pfad_334" class="cls-2" d="M83.06,70.91l-.43,1.31c-.37-.2-.79-.3-1.22-.29-1.53,0-2.39,1.15-2.39,3.15v4.11h-1.39v-8.36h1.39v3.18h0c0-2.13,1.03-3.35,2.75-3.35.44-.02.88.07,1.29.24Z"/><path id="Pfad_335" class="cls-2" d="M93.98,75.28h-2.84v2.89h-.79v-2.89h-2.82v-.69h2.82v-2.89h.76v2.89h2.87v.69Z"/><path id="Pfad_336" class="cls-2" d="M99.45,74.93h1.43c-.03,1.74,1.36,3.18,3.1,3.21.1,0,.2,0,.29,0,2.13,0,3.35-.88,3.35-2.39,0-1.86-1.72-2.13-3.56-2.39s-4.28-.67-4.28-3.25,1.74-3.59,4.49-3.59c2.31-.13,4.28,1.63,4.41,3.94,0,.11,0,.21,0,.32h-1.43c.06-1.61-1.2-2.96-2.81-3.02-.1,0-.2,0-.3,0-1.86,0-2.96.81-2.96,2.22s1.58,1.84,3.32,2.13c2.13.33,4.54.69,4.54,3.51,0,2.39-1.82,3.75-4.78,3.75-2.43.22-4.58-1.56-4.81-4-.01-.15-.02-.3-.02-.45h0Z"/><path id="Pfad_337" class="cls-2" d="M119.28,75c0,2.75-1.34,4.37-3.58,4.37-1.51.18-2.87-.9-3.05-2.41-.02-.18-.02-.35-.01-.53h0v6.64h-1.39v-12.24h1.39v2.84h0c-.1-1.5,1.03-2.8,2.53-2.91.18-.01.35,0,.53.01,2.25-.12,3.58,1.48,3.58,4.21ZM117.85,75c0-2.01-.98-3.2-2.68-3.2s-2.7,1.24-2.7,3.2,1,3.23,2.7,3.23,2.68-1.19,2.68-3.23h0Z"/><path id="Pfad_338" class="cls-2" d="M126.86,70.91l-.41,1.31c-.38-.2-.81-.3-1.24-.29-1.53,0-2.39,1.15-2.39,3.15v4.11h-1.39v-8.36h1.39v3.18h0c0-2.13,1.03-3.35,2.75-3.35.44-.02.88.07,1.29.24Z"/><path id="Pfad_339" class="cls-2" d="M135.27,75.23h-6.4c0,1.91,1,3.04,2.53,3.04,1.18.02,2.2-.84,2.39-2.01h1.39c-.24,1.91-1.95,3.29-3.87,3.11-2.39,0-3.89-1.6-3.89-4.35s1.46-4.35,3.89-4.35,3.87,1.6,3.87,4.35l.09.21ZM128.89,74.52h4.99c-.14-1.74-1.05-2.75-2.39-2.75-1.48.04-2.64,1.27-2.6,2.75h0Z"/><path id="Pfad_340" class="cls-2" d="M144.66,73.99v5.21h-1.39v-5.19c.12-1.1-.67-2.09-1.78-2.21-.12-.01-.23-.02-.35,0-1.5,0-2.39,1.05-2.39,2.82v4.59h-1.38v-8.36h1.39v2.84h0c-.2-1.46.82-2.81,2.29-3.02.18-.02.36-.03.53-.02,1.61-.11,3,1.1,3.11,2.71.01.21,0,.43-.03.64h0Z"/><path id="Pfad_341" class="cls-2" d="M154.79,70.84v8.55c.14,1.99-1.35,3.72-3.34,3.86-.22.02-.44.01-.65-.01-1.87.26-3.59-1.05-3.85-2.92,0-.06-.02-.12-.02-.19h1.34c.07,1.24,1.13,2.19,2.37,2.12.05,0,.11,0,.16-.02,1.31.12,2.48-.84,2.6-2.16.01-.16.01-.31,0-.47v-3.08h0c.09,1.53-1.08,2.84-2.61,2.93-.16,0-.32,0-.48-.01-2.25,0-3.56-1.62-3.56-4.32s1.31-4.32,3.56-4.32c1.51-.16,2.86.93,3.02,2.44.02.15.02.3.01.45h0v-2.72l1.44-.12ZM153.5,74.99c0-1.96-.98-3.2-2.7-3.2s-2.65,1.17-2.65,3.2.98,3.18,2.65,3.18,2.7-1.22,2.7-3.18Z"/><path id="Pfad_342" class="cls-2" d="M164.66,75.23h-6.4c0,1.91,1,3.04,2.53,3.04,1.18.02,2.2-.84,2.39-2.01h1.39c-.24,1.91-1.95,3.29-3.87,3.11-2.39,0-3.89-1.6-3.89-4.35s1.46-4.35,3.89-4.35,3.87,1.6,3.87,4.35l.09.21ZM158.28,74.52h4.99c-.14-1.74-1.05-2.75-2.39-2.75-1.48.04-2.64,1.27-2.61,2.75h0Z"/><path id="Pfad_343" class="cls-2" d="M172.21,70.91l-.41,1.31c-.38-.2-.81-.3-1.24-.29-1.53,0-2.39,1.15-2.39,3.15v4.11h-1.39v-8.36h1.39v3.18h0c0-2.13,1.03-3.35,2.75-3.35.44-.01.88.07,1.29.24Z"/></g></g></g></g></g></g></svg>