<?xml version="1.0" encoding="UTF-8"?><svg id="achtung-2_svg__Ebene_2" xmlns="http://www.w3.org/2000/svg" viewBox="0 0 60 60"><defs/><g id="achtung-2_svg__Ebene_1-2"><circle id="achtung-2_svg__Ellipse_15" cx="30" cy="30" r="30" style="fill:currentColor"/><g id="achtung-2_svg__b"><g id="achtung-2_svg__c"><g id="achtung-2_svg__Gruppe_55"><path id="achtung-2_svg__Pfad_306" d="M31.16,34.9v2.19h-2.31v-2.19h2.31Zm-2.17-12.43h2.06l-.1,10.55h-1.86l-.1-10.55Z" style="fill:#fff"/><path id="achtung-2_svg__Pfad_307" d="M15.77,38.21L28.37,15.95c.51-.9,1.65-1.22,2.54-.71,.3,.17,.54,.41,.71,.71l12.61,22.26c.51,.9,.19,2.04-.71,2.55-.28,.16-.6,.24-.92,.24H17.39c-1.03,0-1.87-.83-1.87-1.87,0-.32,.08-.64,.24-.92h0Z" style="fill:none;stroke:#fff;stroke-miterlimit:10;stroke-width:1.5px"/></g></g></g></g></svg>
