<?xml version="1.0" encoding="UTF-8"?><svg id="Ebene_2" xmlns="http://www.w3.org/2000/svg" viewBox="0 0 73.2 118"><defs><style>.cls-1{fill:#fff;}</style></defs><g id="Ebene_1-2"><path class="cls-1" d="m14.95,85.67l1.79-4.67h.67l1.91,4.67h-.7l-.54-1.41h-1.95l-.51,1.41h-.66Zm1.35-1.92h1.58l-.49-1.29c-.15-.39-.26-.72-.33-.97-.06.3-.14.6-.25.89l-.51,1.37Z"/><path class="cls-1" d="m22.03,85.67v-.5c-.26.38-.62.57-1.07.57-.2,0-.39-.04-.56-.12s-.3-.17-.38-.29c-.08-.12-.14-.26-.18-.42-.02-.11-.03-.29-.03-.53v-2.09h.57v1.87c0,.3.01.5.04.61.04.15.11.27.23.35.12.09.26.13.43.13s.33-.04.48-.13c.15-.09.26-.21.32-.36.06-.15.09-.37.09-.66v-1.81h.57v3.38h-.51Z"/><path class="cls-1" d="m23.3,84.66l.57-.09c.03.23.12.4.27.52.15.12.35.18.61.18s.46-.05.58-.16c.13-.11.19-.23.19-.38,0-.13-.06-.23-.17-.31-.08-.05-.27-.12-.59-.19-.42-.11-.71-.2-.87-.28-.16-.08-.28-.18-.37-.32-.08-.14-.13-.29-.13-.45,0-.15.03-.29.1-.42.07-.13.16-.23.28-.32.09-.07.21-.12.36-.17.15-.05.32-.07.5-.07.26,0,.5.04.7.12.2.08.35.18.44.31.1.13.16.31.2.52l-.56.08c-.03-.18-.1-.31-.22-.41-.12-.1-.29-.15-.52-.15-.26,0-.45.04-.56.13s-.17.19-.17.31c0,.07.02.14.07.2.05.06.12.11.22.15.06.02.23.07.51.15.4.11.69.2.85.27.16.07.29.17.38.3s.14.29.14.49-.06.37-.17.54c-.11.17-.27.3-.48.39-.21.09-.45.14-.71.14-.44,0-.77-.09-1-.28-.23-.18-.38-.45-.44-.81Z"/><path class="cls-1" d="m29.71,85.67l-1.29-3.38h.6l.73,2.02c.08.22.15.45.22.68.05-.18.12-.39.21-.64l.75-2.06h.59l-1.28,3.38h-.53Z"/><path class="cls-1" d="m31.9,83.98c0-.63.17-1.09.52-1.39.29-.25.64-.38,1.06-.38.46,0,.84.15,1.14.46.29.3.44.73.44,1.26,0,.43-.07.78-.2,1.03-.13.25-.32.44-.57.58s-.52.21-.82.21c-.47,0-.86-.15-1.15-.46s-.44-.74-.44-1.31Zm.59,0c0,.43.09.76.28.97.19.22.43.32.71.32s.52-.11.71-.33c.19-.22.28-.55.28-.99,0-.42-.09-.73-.28-.95-.19-.22-.43-.32-.71-.32s-.52.11-.71.32c-.19.21-.28.54-.28.97Z"/><path class="cls-1" d="m35.81,85.67v-3.38h.52v.51c.13-.24.25-.4.36-.47.11-.08.23-.12.37-.12.19,0,.39.06.59.18l-.2.53c-.14-.08-.28-.12-.42-.12-.13,0-.24.04-.34.11-.1.08-.17.18-.21.31-.06.2-.1.43-.1.67v1.77h-.57Z"/><path class="cls-1" d="m38.6,85.67h-.53v-4.67h.57v1.67c.24-.3.55-.46.93-.46.21,0,.4.04.59.13.19.08.34.2.46.35.12.15.21.33.28.55.07.21.1.44.1.69,0,.58-.14,1.03-.43,1.34-.29.32-.63.48-1.03.48s-.71-.17-.94-.5v.42Zm0-1.72c0,.41.06.7.17.88.18.29.42.44.73.44.25,0,.47-.11.65-.33.18-.22.27-.54.27-.97s-.09-.77-.26-.98-.39-.32-.63-.32-.47.11-.65.33-.27.53-.27.94Z"/><path class="cls-1" d="m41.79,81.67v-.66h.57v.66h-.57Zm0,4.01v-3.38h.57v3.38h-.57Z"/><path class="cls-1" d="m43.3,85.67v-4.67h.57v4.67h-.57Z"/><path class="cls-1" d="m47.04,85.67v-.43c-.21.34-.53.5-.95.5-.27,0-.52-.08-.74-.22s-.4-.36-.53-.62c-.12-.27-.19-.57-.19-.92s.06-.64.17-.92.28-.49.51-.63.48-.22.75-.22c.2,0,.39.04.54.13.16.09.29.2.39.34v-1.68h.57v4.67h-.53Zm-1.81-1.69c0,.43.09.76.27.97.18.21.4.32.65.32s.46-.1.64-.31c.18-.2.26-.52.26-.94,0-.46-.09-.8-.27-1.02-.18-.22-.4-.32-.66-.32s-.47.1-.64.31c-.17.21-.26.53-.26.98Z"/><path class="cls-1" d="m48.55,85.67v-4.67h.57v4.67h-.57Z"/><path class="cls-1" d="m50.09,81.67v-.66h.57v.66h-.57Zm0,4.01v-3.38h.57v3.38h-.57Z"/><path class="cls-1" d="m53.83,84.43l.56.07c-.06.39-.22.69-.47.91-.25.22-.56.33-.93.33-.46,0-.83-.15-1.12-.45-.28-.3-.42-.74-.42-1.3,0-.37.06-.68.18-.96.12-.27.3-.48.55-.62.25-.14.52-.21.81-.21.37,0,.67.09.9.28.23.18.38.45.45.79l-.56.09c-.05-.23-.15-.4-.28-.51-.14-.11-.3-.17-.49-.17-.29,0-.52.1-.7.31-.18.21-.27.53-.27.98s.09.78.26.99.4.31.68.31c.23,0,.41-.07.56-.21.15-.14.25-.35.29-.64Z"/><path class="cls-1" d="m54.97,85.67v-4.67h.57v1.68c.27-.31.6-.47,1.01-.47.25,0,.47.05.65.15s.32.23.4.41c.08.17.12.43.12.76v2.14h-.57v-2.14c0-.28-.06-.49-.19-.63s-.3-.19-.53-.19c-.17,0-.33.04-.48.13-.15.09-.26.21-.32.36-.06.15-.1.36-.1.63v1.85h-.57Z"/><path class="cls-1" d="m13.16,92.21h-.53v-4.67h.57v1.67c.24-.3.55-.46.93-.46.21,0,.4.04.59.13.19.08.34.2.46.35.12.15.21.33.28.55.07.21.1.44.1.69,0,.58-.14,1.03-.43,1.34-.29.32-.63.48-1.03.48s-.71-.17-.94-.5v.42Zm0-1.72c0,.41.06.7.17.88.18.29.42.44.73.44.25,0,.47-.11.65-.33.18-.22.27-.54.27-.97s-.09-.77-.26-.98-.39-.32-.63-.32-.47.11-.65.33-.27.53-.27.94Z"/><path class="cls-1" d="m18.65,91.12l.59.07c-.09.35-.27.62-.52.81-.25.19-.58.29-.97.29-.49,0-.89-.15-1.18-.46-.29-.3-.43-.73-.43-1.28s.15-1.01.44-1.32c.29-.31.67-.47,1.14-.47s.82.15,1.11.46.43.74.43,1.3c0,.03,0,.08,0,.15h-2.52c.02.37.13.65.31.85.19.2.43.3.71.3.21,0,.39-.06.54-.17.15-.11.27-.29.35-.53Zm-1.88-.93h1.89c-.03-.28-.1-.5-.22-.64-.18-.22-.42-.33-.71-.33-.26,0-.48.09-.66.26-.18.18-.28.41-.3.71Z"/><path class="cls-1" d="m20.67,92.21l-1.03-3.38h.59l.54,1.95.2.73s.07-.27.18-.7l.54-1.98h.59l.51,1.96.17.65.19-.65.58-1.95h.56l-1.06,3.38h-.6l-.54-2.02-.13-.58-.68,2.6h-.6Z"/><path class="cls-1" d="m24.84,88.21v-.66h.57v.66h-.57Zm0,4.01v-3.38h.57v3.38h-.57Z"/><path class="cls-1" d="m26.36,92.21v-3.38h.52v.51c.13-.24.25-.4.36-.47.11-.08.23-.12.37-.12.19,0,.39.06.59.18l-.2.53c-.14-.08-.28-.12-.42-.12-.13,0-.24.04-.34.11-.1.08-.17.18-.21.31-.06.2-.1.43-.1.67v1.77h-.57Z"/><path class="cls-1" d="m29.87,91.7l.08.51c-.16.03-.3.05-.43.05-.21,0-.37-.03-.48-.1s-.2-.15-.24-.26c-.05-.11-.07-.33-.07-.68v-1.94h-.42v-.44h.42v-.84l.57-.34v1.18h.58v.44h-.58v1.98c0,.16.01.27.03.32s.05.08.1.11c.05.03.11.04.2.04.06,0,.15,0,.25-.02Z"/><path class="cls-1" d="m30.29,91.2l.57-.09c.03.23.12.4.27.52.15.12.35.18.61.18s.46-.05.58-.16c.13-.11.19-.23.19-.38,0-.13-.06-.23-.17-.31-.08-.05-.27-.12-.59-.19-.42-.11-.71-.2-.87-.28-.16-.08-.28-.18-.37-.32-.08-.14-.13-.29-.13-.45,0-.15.03-.29.1-.42.07-.13.16-.23.28-.32.09-.07.21-.12.36-.17.15-.05.32-.07.5-.07.26,0,.5.04.7.12.2.08.35.18.44.31.1.13.16.31.2.52l-.56.08c-.03-.18-.1-.31-.22-.41-.12-.1-.29-.15-.52-.15-.26,0-.45.04-.56.13s-.17.19-.17.31c0,.07.02.14.07.2.05.06.12.11.22.15.06.02.23.07.51.15.4.11.69.2.85.27.16.07.29.17.38.3s.14.29.14.49-.06.37-.17.54c-.11.17-.27.3-.48.39-.21.09-.45.14-.71.14-.44,0-.77-.09-1-.28-.23-.18-.38-.45-.44-.81Z"/><path class="cls-1" d="m36.07,90.97l.56.07c-.06.39-.22.69-.47.91-.25.22-.56.33-.93.33-.46,0-.83-.15-1.12-.45-.28-.3-.42-.74-.42-1.3,0-.37.06-.68.18-.96.12-.27.3-.48.55-.62.25-.14.52-.21.81-.21.37,0,.67.09.9.28.23.18.38.45.45.79l-.56.09c-.05-.23-.15-.4-.28-.51-.14-.11-.3-.17-.49-.17-.29,0-.52.1-.7.31-.18.21-.27.53-.27.98s.09.78.26.99.4.31.68.31c.23,0,.41-.07.56-.21.15-.14.25-.35.29-.64Z"/><path class="cls-1" d="m37.2,92.21v-4.67h.57v1.68c.27-.31.6-.47,1.01-.47.25,0,.47.05.65.15s.32.23.4.41c.08.17.12.43.12.76v2.14h-.57v-2.14c0-.28-.06-.49-.19-.63s-.3-.19-.53-.19c-.17,0-.33.04-.48.13-.15.09-.26.21-.32.36-.06.15-.1.36-.1.63v1.85h-.57Z"/><path class="cls-1" d="m43.12,91.79c-.21.18-.42.31-.61.38-.2.07-.41.11-.63.11-.37,0-.66-.09-.86-.27-.2-.18-.3-.41-.3-.69,0-.17.04-.32.11-.45.08-.14.17-.25.3-.33s.26-.15.41-.19c.11-.03.28-.06.51-.09.46-.05.8-.12,1.02-.2,0-.08,0-.13,0-.15,0-.23-.05-.4-.16-.49-.15-.13-.36-.19-.65-.19-.27,0-.47.05-.6.14-.13.09-.22.26-.28.5l-.56-.08c.05-.24.14-.43.25-.58.12-.15.29-.26.51-.34.22-.08.48-.12.77-.12s.52.03.7.1c.18.07.31.15.4.26.08.1.14.23.18.39.02.1.03.27.03.53v.76c0,.53.01.87.04,1.01.02.14.07.28.14.41h-.6c-.06-.12-.1-.26-.11-.42Zm-.05-1.28c-.21.08-.52.16-.94.22-.23.03-.4.07-.5.11-.1.04-.17.11-.23.19s-.08.17-.08.27c0,.15.06.28.17.38.12.1.28.15.51.15s.42-.05.59-.14c.17-.1.3-.23.38-.4.06-.13.09-.32.09-.57v-.21Z"/><path class="cls-1" d="m44.76,92.21v-2.93h-.51v-.44h.51v-.36c0-.23.02-.4.06-.51.05-.15.15-.27.29-.36.14-.09.33-.14.58-.14.16,0,.34.02.53.06l-.09.5c-.12-.02-.23-.03-.34-.03-.17,0-.3.04-.37.11s-.11.21-.11.42v.31h.66v.44h-.66v2.93h-.57Z"/><path class="cls-1" d="m47.77,91.7l.08.51c-.16.03-.3.05-.43.05-.21,0-.37-.03-.48-.1s-.2-.15-.24-.26c-.05-.11-.07-.33-.07-.68v-1.94h-.42v-.44h.42v-.84l.57-.34v1.18h.58v.44h-.58v1.98c0,.16.01.27.03.32s.05.08.1.11c.05.03.11.04.2.04.06,0,.15,0,.25-.02Z"/><path class="cls-1" d="m50.73,91.12l.59.07c-.09.35-.27.62-.52.81-.25.19-.58.29-.97.29-.49,0-.89-.15-1.18-.46-.29-.3-.43-.73-.43-1.28s.15-1.01.44-1.32c.29-.31.67-.47,1.14-.47s.82.15,1.11.46.43.74.43,1.3c0,.03,0,.08,0,.15h-2.52c.02.37.13.65.31.85.19.2.43.3.71.3.21,0,.39-.06.54-.17.15-.11.27-.29.35-.53Zm-1.88-.93h1.89c-.03-.28-.1-.5-.22-.64-.18-.22-.42-.33-.71-.33-.26,0-.48.09-.66.26-.18.18-.28.41-.3.71Z"/><path class="cls-1" d="m53.37,91.7l.08.51c-.16.03-.3.05-.43.05-.21,0-.37-.03-.48-.1s-.2-.15-.24-.26c-.05-.11-.07-.33-.07-.68v-1.94h-.42v-.44h.42v-.84l.57-.34v1.18h.58v.44h-.58v1.98c0,.16.01.27.03.32s.05.08.1.11c.05.03.11.04.2.04.06,0,.15,0,.25-.02Z"/><path class="cls-1" d="m56.33,91.12l.59.07c-.09.35-.27.62-.52.81-.25.19-.58.29-.97.29-.49,0-.89-.15-1.18-.46-.29-.3-.43-.73-.43-1.28s.15-1.01.44-1.32c.29-.31.67-.47,1.14-.47s.82.15,1.11.46.43.74.43,1.3c0,.03,0,.08,0,.15h-2.52c.02.37.13.65.31.85.19.2.43.3.71.3.21,0,.39-.06.54-.17.15-.11.27-.29.35-.53Zm-1.88-.93h1.89c-.03-.28-.1-.5-.22-.64-.18-.22-.42-.33-.71-.33-.26,0-.48.09-.66.26-.18.18-.28.41-.3.71Z"/><path class="cls-1" d="m57.73,92.21v-3.38h.52v.48c.25-.37.61-.56,1.08-.56.2,0,.39.04.56.11.17.07.3.17.38.29s.14.26.18.42c.02.11.03.29.03.56v2.08h-.57v-2.06c0-.23-.02-.41-.07-.52-.04-.12-.12-.21-.24-.28s-.25-.1-.4-.1c-.24,0-.45.08-.63.23-.18.16-.27.45-.27.88v1.85h-.57Z"/><path class="cls-1" d="m25.49,98.75l-1.24-4.67h.63l.71,3.06c.08.32.14.64.2.96.12-.5.19-.79.21-.86l.89-3.15h.74l.67,2.36c.17.59.29,1.14.36,1.65.06-.3.14-.63.23-1.02l.73-3h.62l-1.28,4.67h-.6l-.98-3.55c-.08-.3-.13-.48-.15-.55-.05.22-.09.4-.14.55l-.99,3.55h-.63Z"/><path class="cls-1" d="m33.04,98.33c-.21.18-.42.31-.61.38-.2.07-.41.11-.63.11-.37,0-.66-.09-.86-.27-.2-.18-.3-.41-.3-.69,0-.17.04-.32.11-.45.08-.14.17-.25.3-.33s.26-.15.41-.19c.11-.03.28-.06.51-.09.46-.05.8-.12,1.02-.2,0-.08,0-.13,0-.15,0-.23-.05-.4-.16-.49-.15-.13-.36-.19-.65-.19-.27,0-.47.05-.6.14-.13.09-.22.26-.28.5l-.56-.08c.05-.24.14-.43.25-.58.12-.15.29-.26.51-.34.22-.08.48-.12.77-.12s.52.03.7.1c.18.07.31.15.4.26.08.1.14.23.18.39.02.1.03.27.03.53v.76c0,.53.01.87.04,1.01.02.14.07.28.14.41h-.6c-.06-.12-.1-.26-.11-.42Zm-.05-1.28c-.21.08-.52.16-.94.22-.23.03-.4.07-.5.11-.1.04-.17.11-.23.19s-.08.17-.08.27c0,.15.06.28.17.38.12.1.28.15.51.15s.42-.05.59-.14c.17-.1.3-.23.38-.4.06-.13.09-.32.09-.57v-.21Zm-1.69-2.34v-.65h.6v.65h-.6Zm1.19,0v-.65h.6v.65h-.6Z"/><path class="cls-1" d="m34.53,98.75v-4.67h.57v4.67h-.57Z"/><path class="cls-1" d="m38.27,98.75v-.43c-.21.34-.53.5-.95.5-.27,0-.52-.08-.74-.22s-.4-.36-.53-.62c-.12-.27-.19-.57-.19-.92s.06-.64.17-.92.28-.49.51-.63.48-.22.75-.22c.2,0,.39.04.54.13.16.09.29.2.39.34v-1.68h.57v4.67h-.53Zm-1.81-1.69c0,.43.09.76.27.97.18.21.4.32.65.32s.46-.1.64-.31c.18-.2.26-.52.26-.94,0-.46-.09-.8-.27-1.02-.18-.22-.4-.32-.66-.32s-.47.1-.64.31c-.17.21-.26.53-.26.98Z"/><path class="cls-1" d="m42.1,97.66l.59.07c-.09.35-.27.62-.52.81-.25.19-.58.29-.97.29-.49,0-.89-.15-1.18-.46-.29-.3-.43-.73-.43-1.28s.15-1.01.44-1.32c.29-.31.67-.47,1.14-.47s.82.15,1.11.46.43.74.43,1.3c0,.03,0,.08,0,.15h-2.52c.02.37.13.65.31.85.19.2.43.3.71.3.21,0,.39-.06.54-.17.15-.11.27-.29.35-.53Zm-1.88-.93h1.89c-.03-.28-.1-.5-.22-.64-.18-.22-.42-.33-.71-.33-.26,0-.48.09-.66.26-.18.18-.28.41-.3.71Z"/><path class="cls-1" d="m43.49,98.75v-3.38h.52v.51c.13-.24.25-.4.36-.47.11-.08.23-.12.37-.12.19,0,.39.06.59.18l-.2.53c-.14-.08-.28-.12-.42-.12-.13,0-.24.04-.34.11-.1.08-.17.18-.21.31-.06.2-.1.43-.1.67v1.77h-.57Z"/><path class="cls-1" d="m45.75,98.75v-3.38h.52v.48c.25-.37.61-.56,1.08-.56.2,0,.39.04.56.11.17.07.3.17.38.29s.14.26.18.42c.02.11.03.29.03.56v2.08h-.57v-2.06c0-.23-.02-.41-.07-.52-.04-.12-.12-.21-.24-.28s-.25-.1-.4-.1c-.24,0-.45.08-.63.23-.18.16-.27.45-.27.88v1.85h-.57Z"/><path class="cls-1" d="m28.52,74.18h-.76v-4.85c-.18.18-.42.35-.72.53-.3.18-.57.31-.8.39v-.73c.43-.2.8-.44,1.12-.73.32-.28.55-.56.68-.83h.49v6.23Z"/><path class="cls-1" d="m30.58,71.12c0-.73.08-1.32.23-1.77s.38-.79.67-1.03c.3-.24.67-.36,1.12-.36.33,0,.63.07.88.2.25.13.46.33.62.58.16.25.29.56.38.92.09.36.14.85.14,1.47,0,.73-.08,1.32-.23,1.76-.15.45-.37.79-.67,1.04-.3.24-.67.37-1.13.37-.6,0-1.07-.21-1.41-.64-.41-.52-.61-1.36-.61-2.52Zm.78,0c0,1.02.12,1.7.36,2.03.24.34.53.51.88.51s.64-.17.88-.51c.24-.34.36-1.02.36-2.03s-.12-1.7-.36-2.04c-.24-.33-.54-.5-.89-.5s-.63.15-.84.44c-.26.38-.39,1.08-.39,2.09Z"/><path class="cls-1" d="m35.52,71.12c0-.73.08-1.32.23-1.77s.38-.79.67-1.03c.3-.24.67-.36,1.12-.36.33,0,.63.07.88.2.25.13.46.33.62.58.16.25.29.56.38.92.09.36.14.85.14,1.47,0,.73-.08,1.32-.23,1.76-.15.45-.37.79-.67,1.04-.3.24-.67.37-1.13.37-.6,0-1.07-.21-1.41-.64-.41-.52-.61-1.36-.61-2.52Zm.78,0c0,1.02.12,1.7.36,2.03.24.34.53.51.88.51s.64-.17.88-.51c.24-.34.36-1.02.36-2.03s-.12-1.7-.36-2.04c-.24-.33-.54-.5-.89-.5s-.63.15-.84.44c-.26.38-.39,1.08-.39,2.09Z"/><path class="cls-1" d="m40.6,69.47c0-.44.11-.82.33-1.13.22-.31.55-.47.97-.47.39,0,.71.14.97.42.26.28.38.69.38,1.23s-.13.93-.39,1.21c-.26.28-.58.43-.95.43s-.69-.14-.94-.42c-.25-.28-.37-.7-.37-1.27Zm1.32-1.07c-.19,0-.35.08-.47.24-.13.16-.19.47-.19.9,0,.4.06.68.19.84s.28.24.47.24.35-.08.48-.24c.13-.16.19-.46.19-.9,0-.4-.06-.68-.19-.84-.13-.16-.28-.24-.47-.24Zm0,6.01l3.39-6.54h.62l-3.38,6.54h-.63Zm2.68-1.68c0-.45.11-.82.33-1.13.22-.31.55-.46.97-.46.39,0,.71.14.97.42.25.28.38.69.38,1.23s-.13.93-.39,1.21c-.26.28-.58.43-.96.43s-.69-.14-.94-.42c-.25-.28-.38-.7-.38-1.26Zm1.33-1.07c-.19,0-.35.08-.48.25s-.19.46-.19.9c0,.39.06.67.19.84s.28.25.47.25.35-.08.48-.25c.13-.16.19-.46.19-.9,0-.4-.06-.68-.19-.84-.13-.16-.28-.24-.47-.24Z"/><path class="cls-1" d="m7.49,112.21v-6.21h4.19v.73h-3.37v1.93h2.92v.73h-2.92v2.82h-.82Z"/><path class="cls-1" d="m12.58,110.22l.78-.07c.04.31.12.57.26.76.13.2.34.36.63.48s.6.18.95.18c.31,0,.59-.05.83-.14.24-.09.42-.22.54-.38.12-.16.18-.34.18-.53s-.06-.37-.17-.51c-.11-.15-.3-.27-.56-.37-.17-.06-.54-.17-1.11-.3s-.97-.27-1.2-.39c-.3-.16-.52-.35-.66-.58-.15-.23-.22-.49-.22-.77,0-.31.09-.61.27-.88.18-.27.44-.48.78-.62.34-.14.72-.21,1.14-.21.46,0,.87.08,1.22.22s.62.37.81.66.29.61.3.98l-.79.06c-.04-.39-.19-.69-.43-.89s-.61-.3-1.08-.3-.86.09-1.09.28c-.23.18-.34.4-.34.66,0,.22.08.41.24.55.16.14.57.29,1.24.44.67.15,1.13.28,1.38.4.36.17.63.38.8.63.17.26.26.55.26.88s-.09.64-.28.93c-.19.29-.46.52-.82.68-.35.16-.75.24-1.2.24-.56,0-1.03-.08-1.41-.25-.38-.16-.68-.41-.9-.74-.22-.33-.33-.7-.34-1.12Z"/><path class="cls-1" d="m23.2,110.03l.82.21c-.17.68-.48,1.19-.93,1.54-.45.36-1,.53-1.64.53s-1.21-.14-1.63-.41c-.42-.27-.74-.67-.96-1.18-.22-.52-.33-1.07-.33-1.67,0-.65.12-1.21.37-1.69.25-.48.6-.85,1.06-1.1.46-.25.96-.38,1.51-.38.62,0,1.15.16,1.57.48.42.32.72.76.89,1.34l-.81.19c-.14-.45-.35-.78-.63-.99-.27-.21-.62-.31-1.03-.31-.48,0-.88.12-1.2.34-.32.23-.55.54-.68.92-.13.39-.2.78-.2,1.19,0,.53.08.99.23,1.38.15.39.39.69.72.88s.68.29,1.06.29c.46,0,.85-.13,1.17-.4.32-.27.54-.66.65-1.18Z"/><path class="cls-1" d="m26.15,105.98c.28,0,.55.07.82.22s.48.35.62.62c.15.27.22.55.22.84s-.07.57-.22.83c-.15.27-.35.47-.62.62-.27.15-.54.22-.83.22s-.57-.07-.83-.22c-.27-.15-.47-.35-.62-.62-.15-.27-.22-.54-.22-.83s.08-.57.23-.84c.15-.27.36-.47.63-.62s.54-.22.82-.22Zm0,.28c-.23,0-.46.06-.69.18-.22.12-.4.29-.52.52-.13.22-.19.46-.19.7s.06.47.18.69.3.39.52.52c.22.12.45.18.69.18s.47-.06.69-.18c.22-.13.39-.3.52-.52.12-.22.18-.45.18-.69s-.06-.48-.19-.7-.3-.4-.52-.52c-.22-.12-.45-.18-.68-.18Zm-.73,2.32v-1.8h.62c.21,0,.36.02.46.05.09.03.17.09.23.18s.08.17.08.26c0,.13-.05.25-.14.34-.09.1-.22.15-.37.17.06.03.11.06.15.09.07.07.16.19.27.36l.22.35h-.35l-.16-.28c-.13-.22-.23-.36-.3-.42-.05-.04-.13-.06-.23-.06h-.17v.77h-.29Zm.29-1.01h.35c.17,0,.28-.03.34-.08.06-.05.09-.12.09-.2,0-.05-.01-.1-.04-.14-.03-.04-.07-.07-.12-.09-.05-.02-.15-.03-.29-.03h-.33v.54Z"/><path class="cls-1" d="m35.51,110.03l.82.21c-.17.68-.48,1.19-.93,1.54-.45.36-1,.53-1.64.53s-1.21-.14-1.63-.41c-.42-.27-.74-.67-.96-1.18-.22-.52-.33-1.07-.33-1.67,0-.65.12-1.21.37-1.69.25-.48.6-.85,1.06-1.1.46-.25.96-.38,1.51-.38.62,0,1.15.16,1.57.48.42.32.72.76.89,1.34l-.81.19c-.14-.45-.35-.78-.63-.99-.27-.21-.62-.31-1.03-.31-.48,0-.88.12-1.2.34-.32.23-.55.54-.68.92-.13.39-.2.78-.2,1.19,0,.53.08.99.23,1.38.15.39.39.69.72.88s.68.29,1.06.29c.46,0,.85-.13,1.17-.4.32-.27.54-.66.65-1.18Z"/><path class="cls-1" d="m37.14,109.15c0-.73.08-1.33.23-1.77.15-.45.38-.79.67-1.04.3-.24.67-.37,1.13-.37.33,0,.63.07.88.2.25.13.46.33.62.58.16.25.29.56.39.93.09.36.14.85.14,1.47,0,.73-.08,1.32-.22,1.77-.15.45-.37.79-.67,1.04-.3.25-.68.37-1.13.37-.6,0-1.07-.22-1.41-.64-.41-.52-.61-1.36-.61-2.53Zm.78,0c0,1.02.12,1.7.36,2.04.24.34.53.51.88.51s.65-.17.88-.51c.24-.34.36-1.02.36-2.03s-.12-1.7-.36-2.04c-.24-.34-.54-.5-.89-.5s-.63.15-.84.44c-.26.38-.39,1.08-.39,2.1Z"/><path class="cls-1" d="m46.1,111.48v.73h-4.11c0-.18.02-.36.09-.53.1-.28.27-.55.5-.83.23-.27.56-.59,1-.94.68-.55,1.13-.99,1.37-1.32.24-.32.36-.63.36-.92,0-.3-.11-.56-.32-.77-.22-.21-.5-.31-.85-.31-.37,0-.66.11-.88.33-.22.22-.33.53-.33.92l-.78-.08c.05-.58.26-1.03.61-1.34.35-.31.82-.46,1.41-.46s1.07.17,1.42.5c.35.33.52.74.52,1.23,0,.25-.05.49-.15.73s-.27.49-.51.76c-.24.27-.63.63-1.18,1.09-.46.38-.75.64-.88.78-.13.14-.24.28-.32.41h3.05Z"/><path class="cls-1" d="m47.03,110.57l.76-.1c.09.43.24.74.45.93s.47.29.77.29c.36,0,.66-.13.91-.37.25-.25.37-.56.37-.93s-.11-.64-.34-.87c-.23-.23-.52-.34-.87-.34-.14,0-.32.03-.54.08l.08-.67c.05,0,.09,0,.12,0,.33,0,.62-.08.88-.25.26-.17.39-.43.39-.78,0-.28-.09-.51-.28-.69-.19-.18-.43-.28-.73-.28s-.54.09-.74.28-.33.47-.38.84l-.76-.13c.09-.51.31-.91.64-1.19.33-.28.74-.42,1.23-.42.34,0,.65.07.94.22s.5.34.65.6c.15.25.23.52.23.8s-.07.51-.22.73c-.14.22-.36.4-.64.53.37.08.65.26.86.53s.3.6.3,1c0,.54-.2,1-.59,1.38-.4.38-.9.57-1.5.57-.55,0-1-.16-1.36-.49-.36-.33-.57-.75-.62-1.26Z"/><path class="cls-1" d="m54.84,112.21h-.76v-4.86c-.18.18-.42.35-.72.53-.3.18-.57.31-.8.39v-.74c.43-.2.8-.44,1.12-.73.32-.28.55-.56.68-.83h.49v6.24Z"/><path class="cls-1" d="m56.91,110.57l.76-.1c.09.43.24.74.45.93s.47.29.77.29c.36,0,.66-.13.91-.37.25-.25.37-.56.37-.93s-.11-.64-.34-.87c-.23-.23-.52-.34-.87-.34-.14,0-.32.03-.54.08l.08-.67c.05,0,.09,0,.12,0,.33,0,.62-.08.88-.25.26-.17.39-.43.39-.78,0-.28-.09-.51-.28-.69-.19-.18-.43-.28-.73-.28s-.54.09-.74.28-.33.47-.38.84l-.76-.13c.09-.51.31-.91.64-1.19.33-.28.74-.42,1.23-.42.34,0,.65.07.94.22s.5.34.65.6c.15.25.23.52.23.8s-.07.51-.22.73c-.14.22-.36.4-.64.53.37.08.65.26.86.53s.3.6.3,1c0,.54-.2,1-.59,1.38-.4.38-.9.57-1.5.57-.55,0-1-.16-1.36-.49-.36-.33-.57-.75-.62-1.26Z"/><path class="cls-1" d="m61.9,106.81v-.73h4.02v.59c-.4.42-.79.98-1.18,1.68s-.69,1.42-.9,2.15c-.15.52-.25,1.09-.29,1.71h-.78c0-.49.1-1.08.29-1.77s.45-1.36.79-2,.71-1.18,1.1-1.63h-3.04Z"/><path class="cls-1" d="m21.65,60.03l-.96-3.1h.55l.51,1.79.18.67s.06-.24.17-.64l.5-1.82h.54l.47,1.8.15.59.18-.59.55-1.79h.52l-1.01,3.1h-.54l-.49-1.86-.12-.53-.65,2.39h-.55Z"/><path class="cls-1" d="m26.14,60.03l-.97-3.1h.55l.51,1.79.18.67s.07-.24.17-.64l.5-1.82h.54l.47,1.8.15.59.18-.59.55-1.79h.52l-1.01,3.1h-.53l-.5-1.86-.12-.53-.65,2.39h-.55Z"/><path class="cls-1" d="m30.63,60.03l-.97-3.1h.56l.51,1.79.18.67s.06-.24.17-.64l.5-1.82h.54l.47,1.8.15.59.18-.59.55-1.79h.52l-1.01,3.1h-.54l-.49-1.86-.12-.53-.65,2.39h-.55Z"/><rect class="cls-1" x="34.11" y="59.44" width=".6" height=".59"/><path class="cls-1" d="m35.62,60.03v-2.69h-.46v-.41h.46v-.33c0-.21.02-.36.06-.46.05-.13.14-.25.27-.33.13-.09.31-.13.54-.13.15,0,.32.02.5.05l-.08.46c-.11-.02-.22-.03-.32-.03-.16,0-.28.03-.34.1-.07.07-.1.19-.1.38v.28h.62v.41h-.62v2.69h-.53Z"/><path class="cls-1" d="m37.04,59.1l.53-.07c.03.21.11.36.25.48.13.1.32.16.56.16s.42-.05.54-.14c.12-.1.17-.22.17-.35,0-.12-.05-.22-.15-.28-.07-.05-.25-.1-.54-.17-.38-.1-.65-.19-.8-.25-.15-.08-.27-.17-.34-.29-.08-.13-.12-.27-.12-.42,0-.14.03-.27.1-.38.06-.12.15-.22.26-.3.09-.06.19-.11.34-.15.14-.04.3-.06.46-.06.24,0,.46.03.65.1.18.07.32.16.41.29.09.12.15.28.18.48l-.52.07c-.02-.16-.09-.29-.2-.38-.11-.09-.27-.13-.47-.13-.24,0-.42.04-.52.12-.11.08-.15.17-.15.28,0,.07.02.13.06.18.04.06.11.1.2.14.05.02.2.07.46.14.37.1.64.18.78.24.15.07.27.15.35.28.08.12.12.27.12.45s-.05.34-.15.5c-.1.15-.25.27-.45.35-.2.09-.42.13-.66.13-.41,0-.72-.08-.93-.25-.21-.16-.35-.42-.41-.75"/><path class="cls-1" d="m42.29,58.9l.52.07c-.06.35-.2.63-.44.83-.24.2-.52.3-.86.3-.43,0-.77-.14-1.03-.41-.26-.28-.39-.68-.39-1.19,0-.33.06-.63.17-.88.11-.25.28-.44.51-.56.23-.13.48-.19.74-.19.34,0,.62.09.84.26.22.17.35.42.42.73l-.52.07c-.05-.2-.14-.36-.26-.47-.12-.1-.27-.15-.45-.15-.27,0-.48.09-.65.28-.17.19-.25.49-.25.9s.08.72.24.9c.16.19.37.28.63.28.21,0,.38-.06.52-.19.13-.12.23-.32.26-.58"/><rect class="cls-1" x="43.38" y="59.44" width=".61" height=".59"/><path class="cls-1" d="m45.02,58.48c0,.4.09.69.27.89.17.2.4.3.66.3s.49-.1.67-.3c.17-.2.26-.5.26-.91,0-.38-.09-.68-.27-.87-.17-.19-.39-.3-.66-.3s-.49.1-.66.29c-.17.2-.27.5-.27.9m-.54,0c0-.57.16-1,.49-1.28.27-.22.6-.34.98-.34.44,0,.79.14,1.06.41.27.28.41.66.41,1.15,0,.4-.06.71-.18.94-.12.23-.3.4-.53.53-.22.12-.48.19-.76.19-.44,0-.79-.14-1.07-.42-.27-.28-.41-.68-.41-1.2"/><path class="cls-1" d="m48.03,60.03v-3.1h.47v.48c.12-.22.23-.37.34-.44.1-.07.22-.1.34-.1.19,0,.36.05.55.17l-.19.48c-.13-.07-.26-.1-.39-.1-.11,0-.22.04-.31.1-.09.07-.16.16-.2.29-.06.18-.09.39-.09.61v1.62h-.53Z"/><path class="cls-1" d="m50.34,58.43c0,.41.09.7.25.89.16.19.37.28.61.28s.46-.09.63-.28c.16-.19.25-.48.25-.88,0-.38-.08-.67-.26-.86-.17-.19-.38-.29-.62-.29s-.44.1-.61.29c-.17.19-.25.47-.25.85m-.44,1.86l.53.07c.02.16.08.28.18.35.13.1.31.15.54.15.24,0,.43-.05.56-.15.14-.1.23-.23.28-.41.02-.11.04-.33.04-.68-.23.27-.52.41-.87.41-.44,0-.77-.15-1.01-.46-.24-.31-.35-.68-.35-1.11,0-.29.06-.56.16-.82.11-.25.27-.44.48-.58.21-.14.45-.2.73-.2.37,0,.68.15.92.45v-.38h.48v2.68c0,.48-.05.82-.15,1.03-.1.2-.26.36-.47.47-.22.12-.48.17-.8.17-.37,0-.68-.08-.91-.25-.23-.16-.34-.41-.33-.75"/><path class="cls-1" d="m36.9,6.06c-9.61,0-13,14.69-16.15,26.5-1.14-1.14-4.66-4.58-4.66-4.58-.71-.69-1.52-.47-2.02,0-.5.49-.57,1.41,0,1.96.03.02,4.76,4.67,6.4,6.28.45.43,1.1.69,1.75.31.68-.41.77-1.13.79-1.13,5.6-24.73,10.62-26.57,13.87-26.57,2.74,0,5.89,1.99,5.89,5.97,4.08,0,6.64,5.27,3.35,8.52,2.72,1.29,3.94,2.89,3.94,4.9s-1.72,4.08-4.23,4.08c-2.49,0-3.75-1.57-5.69-1.58-.88,0-1.42.7-1.42,1.38v5h-3.66v-4.97c0-.78-.59-1.4-1.32-1.4-.01,0-.31.01-.31.02l-4.9.6c-.59.09-1.14.71-1.14,1.37,0,.77.64,1.4,1.5,1.39.11,0,.26,0,.25,0-.01,0,3.1-.4,3.1-.4v4.93c0,.63.72,1.24,1.36,1.24h6.51c.76,0,1.42-.64,1.42-1.4v-4.5c1.36.82,3.26,1.14,4.23,1.14,3.65,0,7.14-2.83,7.12-6.96-.02-3.76-2.93-5.64-2.93-5.64,1.71-4.49-1.06-8.82-4.65-10.03-1.3-4.63-5.32-6.43-8.43-6.43"/><path class="cls-1" d="m32.8,45.38c0,1.16,1.32,1.86,3.49,2.88,1.72.8,2.71,1.63,2.71,2.3,0,1.09-1.19,1.48-2.31,1.48-1.73,0-2.75-.68-3.32-2.19l-.05-.13h-.14c-.31,0-.55.01-.68.18-.12.15-.09.36-.04.55,0,0,.38,1.56.38,1.56.1.38.24.44.86.56.27.05,1.67.29,2.85.29,3.3,0,4.78-1.32,4.78-2.63,0-.95-.96-1.86-3.03-2.88l-.94-.45c-1.42-.67-2.27-1.06-2.27-1.76s.88-1.15,2.15-1.15c1.65,0,2.09.91,2.3,1.7l.04.15h.16c.36,0,.6-.02.73-.17.08-.08.11-.2.1-.33l-.13-1.35c-.04-.43-.37-.49-.84-.58-.55-.1-1.21-.22-2.22-.22-2.87,0-4.58.83-4.58,2.21"/><path class="cls-1" d="m42.31,48.12c0,2.35,2.08,4.73,6.04,4.73,2.01,0,3.13-.45,3.97-.89l.23-.12-.37-.4.02.02c-.08-.12-.16-.14-.29-.14l-.19.06c-.3.14-1.22.56-2.89.56-2.05,0-4.26-1.32-4.26-4.22s2.39-3.74,4.44-3.74c1.47,0,2.26.52,2.4,1.59l.02.17h.19c.17,0,.64,0,.64-.34v-1.61c0-.39-.46-.45-.66-.48l-.19-.02c-.47-.07-.92-.12-2.12-.12-4.04,0-6.97,2.08-6.97,4.94"/><path class="cls-1" d="m27.35,43.29l-3.57.03-2.39-.04h-.36c-.21-.01-.36.14-.36.36,0,.1,0,.41.4.41,1.44,0,1.49.12,1.51.66v.34s.03,1.45.03,1.45v3.12c0,.52-.02,1.34-.05,2-.01.19-.02.37-1.29.37-.35,0-.57.07-.57.41,0,.1,0,.37.34.37h.08c.15,0,.55-.02,2.54-.02,2.12,0,2.54.02,2.69.02h.08c.28,0,.52-.03.52-.37,0-.38-.32-.41-.86-.41-1.28,0-1.29-.18-1.29-.36-.03-.61-.06-1.43-.06-2v-1.12h1.07c1.64,0,1.82.04,2.06,1.29.06.27.28.3.47.3.38,0,.43-.21.43-.3l-.03-.46c-.02-.27-.06-.6-.06-1.05v-1.91c0-.29-.35-.29-.53-.29-.31,0-.38.19-.58,1.1-.09.34-.76.54-1.86.54h-.96v-2.81c0-.76.14-.77.31-.78.62-.03,2.15-.08,2.6-.08s.84.1,1.09.27c.81.49,1.23.83,1.48,1.03.25.2.38.31.58.31.12,0,.46,0,.46-.3,0-.07-.03-.14-.14-.38-.13-.29-.35-.76-.64-1.49-.08-.23-.35-.23-.85-.23l-2.27.02Z"/><path class="cls-1" d="m50.02,8.91h.51c.23,0,.39-.04.48-.1.09-.07.14-.16.14-.28,0-.12-.05-.21-.13-.28-.09-.07-.26-.1-.52-.1h-.48v.76Zm1.74,1.42h-.51c-.32-.57-.52-.89-.62-.96-.1-.07-.22-.11-.37-.11h-.25v1.07h-.41v-2.52h.89c.26,0,.47.02.61.06.14.04.26.11.35.23.09.12.13.25.13.39,0,.17-.06.33-.19.47-.13.14-.31.22-.54.23v.02c.15.04.35.25.59.63l.31.49Zm-1.11.66c.54,0,1.01-.19,1.4-.57.4-.38.59-.85.59-1.39s-.19-1-.58-1.38c-.39-.38-.86-.57-1.41-.57s-1.01.19-1.4.57c-.39.38-.58.85-.58,1.38s.19,1,.58,1.38c.39.38.86.58,1.41.58m0-4.31c.65,0,1.21.23,1.68.69.47.46.7,1.01.7,1.66s-.23,1.2-.7,1.66c-.47.46-1.03.69-1.68.69s-1.22-.23-1.69-.69c-.47-.46-.7-1.01-.7-1.66s.24-1.19.7-1.65c.47-.46,1.03-.69,1.69-.69"/><path class="cls-1" d="m50.02,8.91h.51c.23,0,.39-.04.48-.1.09-.07.14-.16.14-.28,0-.12-.05-.21-.13-.28-.09-.07-.26-.1-.52-.1h-.48v.76Zm1.74,1.42h-.51c-.32-.57-.52-.89-.62-.96s-.22-.11-.37-.11h-.24v1.07h-.41v-2.52h.89c.26,0,.47.02.61.06.14.04.26.11.35.24.09.12.13.25.13.39,0,.17-.06.33-.19.47-.13.14-.31.22-.54.24v.02c.15.04.35.25.59.63l.31.49Zm-1.11.66c.54,0,1.01-.19,1.4-.57.4-.38.59-.85.59-1.39s-.19-1-.58-1.38c-.39-.38-.86-.57-1.41-.57s-1.02.19-1.4.57c-.39.38-.58.85-.58,1.38s.19,1,.58,1.39c.39.38.86.58,1.41.58Zm0-4.31c.65,0,1.21.23,1.68.69.47.46.7,1.01.7,1.66s-.23,1.2-.7,1.66c-.47.46-1.03.69-1.68.69s-1.22-.23-1.69-.69c-.47-.46-.7-1.01-.7-1.66s.24-1.2.7-1.65c.47-.46,1.03-.69,1.69-.69Z"/><path class="cls-1" d="m69.29.89c1.67,0,3.02,1.36,3.02,3.02v110.18c0,1.67-1.36,3.02-3.02,3.02H3.91c-1.67,0-3.02-1.36-3.02-3.02V3.91C.89,2.24,2.24.89,3.91.89h65.39m0-.89H3.91C1.75,0,0,1.75,0,3.91v110.18c0,2.16,1.75,3.91,3.91,3.91h65.39c2.16,0,3.91-1.75,3.91-3.91V3.91c0-2.16-1.75-3.91-3.91-3.91h0Z"/></g></svg>