<?xml version="1.0" encoding="UTF-8"?><svg id="phone_svg__Ebene_2" xmlns="http://www.w3.org/2000/svg" viewBox="0 0 19 19"><defs/><g id="phone_svg__Ebene_1-2"><g id="phone_svg__Gruppe_64"><circle id="phone_svg__Ellipse_3" cx="9.5" cy="9.5" r="9.5" style="fill:#6ec1b5"/><g id="phone_svg__Ebene_2-2"><g id="phone_svg__Ebene_1-3"><path id="phone_svg__Pfad_301" d="M4.98,7.69c.02-.06,.04-.11,.07-.16,.22-.3,.44-.6,.66-.89,.18-.22,.38-.42,.59-.62,.05-.05,.1-.09,.16-.13,.07-.08,.19-.08,.27,0,0,0,0,0,0,0,.05,.04,.09,.09,.13,.14,.36,.5,.69,1.03,.96,1.59,.14,.3,.13,.35-.13,.57l-.51,.46s-.03,.08,0,.11c.37,1.26,1.32,2.27,2.56,2.71,.23,.08,.23,.08,.39-.09s.19-.23,.28-.33,.11-.11,.15-.17c.08-.11,.23-.14,.35-.07,.23,.11,.47,.22,.7,.35s.66,.4,.95,.6c.07,.05,.14,.1,.2,.17,.09,.07,.1,.2,.03,.28,0,.01-.02,.02-.03,.03-.07,.11-.16,.2-.25,.29-.37,.37-.77,.71-1.2,1.01-.19,.14-.43,.19-.66,.13-.66-.15-1.28-.41-1.84-.77-1.33-.82-2.44-1.96-3.23-3.31-.3-.51-.51-1.07-.62-1.65,.02-.08,.01-.17,0-.25Z" style="fill:none;stroke:#fff;stroke-miterlimit:10;stroke-width:.8px"/><path id="phone_svg__Pfad_302" d="M12.61,9.49c-.06-1.84-1.54-3.31-3.38-3.37" style="fill:none;stroke:#fff;stroke-miterlimit:10;stroke-width:.8px"/><path id="phone_svg__Pfad_303" d="M11.21,9.49c-.02-.51-.23-1-.58-1.37-.37-.38-.88-.6-1.41-.62" style="fill:none;stroke:#fff;stroke-miterlimit:10;stroke-width:.8px"/></g></g></g></g></svg>